<?xml version="1.0" encoding="UTF-8"?>
<svg id="_图层_1" data-name="图层_1" xmlns="http://www.w3.org/2000/svg" viewBox="0 0 128 128">
  <defs>
    <style>
      .cls-1 {
        fill: #3abef9;
      }

      .cls-2 {
        fill: #3572ef;
      }
    </style>
  </defs>
  <path class="cls-1" d="M39.51,12.33c-1.33-1.33-1.33-3.47,0-4.8l6.55-6.55c1.31-1.31,3.47-1.31,4.78,0l13.16,13.16-11.33,11.33-13.16-13.14Z"/>
  <path class="cls-1" d="M96.48,81.37l-21.15,21.15-11.33,11.33-13.16,13.16c-1.31,1.31-3.47,1.31-4.78,0l-6.55-6.55c-1.33-1.33-1.33-3.47,0-4.8l13.16-13.14,11.33-11.33,18.29-18.29c4.91-4.92,4.91-12.89,0-17.81l-18.29-18.29,11.33-11.33,21.15,21.15c9.59,9.59,9.59,25.15,0,34.75Z"/>
  <rect class="cls-1" x="55.99" y="17.46" width="16.02" height="16.02" transform="translate(.73 52.72) rotate(-45)"/>
  <path class="cls-2" d="M88.49,115.67c1.33,1.33,1.33,3.47,0,4.8l-6.55,6.55c-1.31,1.31-3.47,1.31-4.78,0l-45.64-45.64c-9.59-9.59-9.59-25.15,0-34.75l21.15-21.15,11.33,11.33-18.29,18.29c-4.91,4.92-4.91,12.89,0,17.81l29.62,29.62,13.16,13.14Z"/>
  <path class="cls-2" d="M75.33,25.47l-11.33-11.33L77.16.99c1.31-1.31,3.47-1.31,4.78,0l6.55,6.55c1.33,1.33,1.33,3.47,0,4.8l-13.16,13.14Z"/>
  <path d="M88.73,64c0,4.43-3.31,8.09-7.6,8.63-.35.04-.73.07-1.1.07h-33.84c-4.81,0-8.7-3.9-8.7-8.7s3.89-8.7,8.7-8.7h33.84c.37,0,.75.03,1.1.07,4.3.54,7.6,4.19,7.6,8.63Z"/>
</svg>